{"title":"American Horror Story S06E05 1080p WEB-DL HEVC DD5.1 x265","uid":16035207,"size":696521250,"categoryP":"video","categoryS":"hd___tv_shows","magnet":"?xt=urn:btih:df4ca6873bd4d29aa819d6933bf955cd1222d78a&amp;dn=American+Horror+Story+S06E05+1080p+WEB-DL+HEVC+DD5.1+x265&amp;tr=udp%3A%2F%2Ftracker.leechers-paradise.org%3A6969&amp;tr=udp%3A%2F%2Fzer0day.ch%3A1337&amp;tr=udp%3A%2F%2Fopen.demonii.com%3A1337&amp;tr=udp%3A%2F%2Ftracker.coppersurfer.tk%3A6969&amp;tr=udp%3A%2F%2Fexodus.desync.com%3A6969","seeders":11,"leechers":4,"uploader":"nayhtut","files":1,"time":1476472104,"description":"Source: American Horror Story S06E05 1080p WEB-DL DD5.1 H.264 (1.59 GB)\r\n\r\n\r\nComplete name: American.Horror.Story.S06E05.1080p.WEB.DL.HEVC.DD5.1.x265.mkv\r\nFormat                                   : Matroska\r\nFormat version                           : Version 4 / Version 2\r\nFile size                                : 664 MiB\r\nDuration                                 : 40mn 43s\r\nOverall bit rate                         : 2 281 Kbps\r\nEncoded date                             : UTC 2016-10-14 15:40:19\r\nWriting library                          : libebml v1.3.4 + libmatroska v1.4.5\r\nDURATION                                 : 00:40:14.209000000\r\n\r\n\r\nVideo\r\n\r\nID                                       : 1\r\nFormat                                   : V_MPEGH/ISO/HEVC\r\nCodec ID                                 : V_MPEGH/ISO/HEVC\r\nDuration                                 : 40mn 43s\r\nBit rate                                 : 1 851 Kbps\r\nWidth                                    : 1 920 pixels\r\nHeight                                   : 1 080 pixels\r\nDisplay aspect ratio                     : 16:9\r\nFrame rate                               : 23.976 fps\r\nBits/(Pixel*Frame)                       : 0.038\r\nStream size                              : 539 MiB (81%)\r\nTitle: American.Horror.Story.S06E05.1080p.WEB.DL.HEVC.DD5.1.x265\r\nLanguage                                 : English\r\nDefault                                  : Yes\r\nForced                                   : No\r\nDURATION                                 : 00:40:43.066000000\r\n\r\nAudio\r\n\r\nID                                       : 2\r\nFormat                                   : AC-3\r\nFormat/Info                              : Audio Coding 3\r\nMode extension                           : CM (complete main)\r\nFormat settings, Endianness              : Big\r\nCodec ID                                 : A_AC3\r\nDuration                                 : 40mn 43s\r\nBit rate mode                            : Constant\r\nBit rate                                 : 384 Kbps\r\nChannel(s)                               : 6 channels\r\nChannel positions                        : Front: L C R, Side: L R, LFE\r\nSampling rate                            : 48.0 KHz\r\nBit depth                                : 16 bits\r\nCompression mode                         : Lossy\r\nStream size                              : 112 MiB (17%)\r\nTitle                                    : AC-3 5.1\r\nLanguage                                 : English\r\nDefault                                  : Yes\r\nForced                                   : No\r\n\r\nText\r\n\r\nID                                       : 3\r\nFormat                                   : UTF-8\r\nCodec ID/Info                            : UTF-8 Plain Text\r\nTitle                                    : English\r\nLanguage                                 : English","torrent":{"xt":"urn:btih:df4ca6873bd4d29aa819d6933bf955cd1222d78a","amp;dn":"American+Horror+Story+S06E05+1080p+WEB-DL+HEVC+DD5.1+x265","amp;tr":["udp%3A%2F%2Ftracker.leechers-paradise.org%3A6969","udp%3A%2F%2Fzer0day.ch%3A1337","udp%3A%2F%2Fopen.demonii.com%3A1337","udp%3A%2F%2Ftracker.coppersurfer.tk%3A6969","udp%3A%2F%2Fexodus.desync.com%3A6969"],"infoHash":"df4ca6873bd4d29aa819d6933bf955cd1222d78a","infoHashBuffer":{"type":"Buffer","data":[223,76,166,135,59,212,210,154,168,25,214,147,59,249,85,205,18,34,215,138]},"announce":[],"urlList":[]}}